{"title":"Ice Cube - I Rep That West [KingPinVideos]","uid":5756398,"size":97882779,"categoryP":"video","categoryS":"music_videos","magnet":"?xt=urn:btih:f97edf8bfc1c9b32e0f23b31026fd2e393100d6a&amp;dn=Ice+Cube+-+I+Rep+That+West+%5BKingPinVideos%5D&amp;tr=udp%3A%2F%2Ftracker.openbittorrent.com%3A80&amp;tr=udp%3A%2F%2Fopen.demonii.com%3A1337&amp;tr=udp%3A%2F%2Ftracker.coppersurfer.tk%3A6969&amp;tr=udp%3A%2F%2Fexodus.desync.com%3A6969","seeders":1,"leechers":0,"uploader":"KingPinMan","files":4,"time":1281576030,"description":"[img]http://a.imageshack.us/img834/1636/icecubewestr.png[/img]\n\n[img]http://a.imageshack.us/img411/6883/icecubewest3.png[/img]\n\n[code]General\nComplete name                    : Ice Cube - I Rep That West [KingPinVideos].mpg\nFormat                           : MPEG-PS\nFile size                        : 93.3 MiB\nDuration                         : 5mn 12s\nOverall bit rate                 : 2 502 Kbps\nWriting library                  : encoded by TMPGEnc 4.0 XPress Version. 4.7.4.299\n\nVideo\nID                               : 224 (0xE0)\nFormat                           : MPEG Video\nFormat version                   : Version 1\nFormat settings, BVOP            : Yes\nFormat settings, Matrix          : Default\nDuration                         : 5mn 12s\nBit rate mode                    : Variable\nBit rate                         : 2 275 Kbps\nNominal bit rate                 : 2 350 Kbps\nWidth                            : 384 pixels\nHeight                           : 208 pixels\nDisplay aspect ratio             : 16:9\nFrame rate                       : 29.970 fps\nResolution                       : 8 bits\nScan type                        : Progressive\nBits/(Pixel*Frame)               : 0.950\nStream size                      : 84.9 MiB (91%)\nWriting library                  : TMPGEnc XPress 4.7.4.299\n\nAudio\nID                               : 192 (0xC0)\nFormat                           : MPEG Audio\nFormat version                   : Version 1\nFormat profile                   : Layer 2\nDuration                         : 5mn 12s\nBit rate mode                    : Constant\nBit rate                         : 128 Kbps\nChannel(s)                       : 2 channels\nSampling rate                    : 48.0 KHz\nStream size                      : 4.77 MiB (5%)\n\n[/code]","torrent":{"xt":"urn:btih:f97edf8bfc1c9b32e0f23b31026fd2e393100d6a","amp;dn":"Ice+Cube+-+I+Rep+That+West+%5BKingPinVideos%5D","amp;tr":["udp%3A%2F%2Ftracker.openbittorrent.com%3A80","udp%3A%2F%2Fopen.demonii.com%3A1337","udp%3A%2F%2Ftracker.coppersurfer.tk%3A6969","udp%3A%2F%2Fexodus.desync.com%3A6969"],"infoHash":"f97edf8bfc1c9b32e0f23b31026fd2e393100d6a","infoHashBuffer":{"type":"Buffer","data":[249,126,223,139,252,28,155,50,224,242,59,49,2,111,210,227,147,16,13,106]},"announce":[],"urlList":[]}}